<mxfile host="app.diagrams.net" agent="Mozilla/5.0 (Windows NT 10.0; Win64; x64) AppleWebKit/537.36 (KHTML, like Gecko) Chrome/127.0.0.0 Safari/537.36 OPR/113.0.0.0" version="24.7.17">
  <diagram name="Страница — 1" id="sIfVU7GVlnsh3E5o3PyH">
    <mxGraphModel dx="1121" dy="1815" grid="1" gridSize="10" guides="1" tooltips="1" connect="1" arrows="1" fold="1" page="1" pageScale="1" pageWidth="827" pageHeight="1169" math="0" shadow="0">
      <root>
        <mxCell id="0" />
        <mxCell id="1" parent="0" />
        <mxCell id="qHtUTdkbh8R9QmoetXJE-1" value="Получить ссылку на мероприятие" style="ellipse;whiteSpace=wrap;html=1;" vertex="1" parent="1">
          <mxGeometry x="440" y="-20" width="140" height="70" as="geometry" />
        </mxCell>
        <mxCell id="qHtUTdkbh8R9QmoetXJE-2" value="Регистрация на мероприятие" style="ellipse;whiteSpace=wrap;html=1;" vertex="1" parent="1">
          <mxGeometry x="520" y="-200" width="140" height="70" as="geometry" />
        </mxCell>
        <mxCell id="qHtUTdkbh8R9QmoetXJE-3" value="Просмотр мероприятий" style="ellipse;whiteSpace=wrap;html=1;" vertex="1" parent="1">
          <mxGeometry x="40" y="-120" width="140" height="70" as="geometry" />
        </mxCell>
        <mxCell id="qHtUTdkbh8R9QmoetXJE-4" value="скачать материалы мероприятия" style="ellipse;whiteSpace=wrap;html=1;" vertex="1" parent="1">
          <mxGeometry x="470" y="-120" width="140" height="70" as="geometry" />
        </mxCell>
        <mxCell id="qHtUTdkbh8R9QmoetXJE-5" value="оставить отзыв" style="ellipse;whiteSpace=wrap;html=1;" vertex="1" parent="1">
          <mxGeometry x="130" y="-230" width="140" height="70" as="geometry" />
        </mxCell>
        <mxCell id="qHtUTdkbh8R9QmoetXJE-6" value="создать мероприятие" style="ellipse;whiteSpace=wrap;html=1;" vertex="1" parent="1">
          <mxGeometry y="150" width="140" height="70" as="geometry" />
        </mxCell>
        <mxCell id="qHtUTdkbh8R9QmoetXJE-7" value="изменить мероприятие" style="ellipse;whiteSpace=wrap;html=1;" vertex="1" parent="1">
          <mxGeometry x="130" y="210" width="140" height="70" as="geometry" />
        </mxCell>
        <mxCell id="qHtUTdkbh8R9QmoetXJE-8" value="создать группу мероприятий" style="ellipse;whiteSpace=wrap;html=1;" vertex="1" parent="1">
          <mxGeometry x="290" y="220" width="140" height="70" as="geometry" />
        </mxCell>
        <mxCell id="qHtUTdkbh8R9QmoetXJE-9" value="получит отчёт по мероприятию" style="ellipse;whiteSpace=wrap;html=1;" vertex="1" parent="1">
          <mxGeometry x="400" y="140" width="140" height="70" as="geometry" />
        </mxCell>
        <mxCell id="qHtUTdkbh8R9QmoetXJE-25" style="rounded=0;orthogonalLoop=1;jettySize=auto;html=1;exitX=0.5;exitY=0.5;exitDx=0;exitDy=0;exitPerimeter=0;entryX=0;entryY=0.5;entryDx=0;entryDy=0;endArrow=none;endFill=0;" edge="1" parent="1" source="qHtUTdkbh8R9QmoetXJE-10" target="qHtUTdkbh8R9QmoetXJE-2">
          <mxGeometry relative="1" as="geometry" />
        </mxCell>
        <mxCell id="qHtUTdkbh8R9QmoetXJE-10" value="Пользователь" style="shape=umlActor;verticalLabelPosition=bottom;verticalAlign=top;html=1;" vertex="1" parent="1">
          <mxGeometry x="300" y="-120" width="30" height="60" as="geometry" />
        </mxCell>
        <mxCell id="qHtUTdkbh8R9QmoetXJE-11" value="Организатор" style="shape=umlActor;verticalLabelPosition=bottom;verticalAlign=top;html=1;align=center;horizontal=1;" vertex="1" parent="1">
          <mxGeometry x="140" y="10" width="30" height="60" as="geometry" />
        </mxCell>
        <mxCell id="qHtUTdkbh8R9QmoetXJE-13" value="Вход в систему" style="ellipse;whiteSpace=wrap;html=1;" vertex="1" parent="1">
          <mxGeometry x="360" y="-220" width="140" height="70" as="geometry" />
        </mxCell>
        <mxCell id="qHtUTdkbh8R9QmoetXJE-14" value="Авторизация&lt;span style=&quot;color: rgba(0, 0, 0, 0); font-family: monospace; font-size: 0px; text-align: start; text-wrap: nowrap;&quot;&gt;%3CmxGraphModel%3E%3Croot%3E%3CmxCell%20id%3D%220%22%2F%3E%3CmxCell%20id%3D%221%22%20parent%3D%220%22%2F%3E%3CmxCell%20id%3D%222%22%20value%3D%22%D0%92%D1%85%D0%BE%D0%B4%20%D0%B2%20%D1%81%D0%B8%D1%81%D1%82%D0%B5%D0%BC%D1%83%22%20style%3D%22ellipse%3BwhiteSpace%3Dwrap%3Bhtml%3D1%3B%22%20vertex%3D%221%22%20parent%3D%221%22%3E%3CmxGeometry%20x%3D%2270%22%20y%3D%22-360%22%20width%3D%22140%22%20height%3D%2270%22%20as%3D%22geometry%22%2F%3E%3C%2FmxCell%3E%3C%2Froot%3E%3C%2FmxGraphModel%3E&lt;/span&gt;&lt;span style=&quot;color: rgba(0, 0, 0, 0); font-family: monospace; font-size: 0px; text-align: start; text-wrap: nowrap;&quot;&gt;%3CmxGraphModel%3E%3Croot%3E%3CmxCell%20id%3D%220%22%2F%3E%3CmxCell%20id%3D%221%22%20parent%3D%220%22%2F%3E%3CmxCell%20id%3D%222%22%20value%3D%22%D0%92%D1%85%D0%BE%D0%B4%20%D0%B2%20%D1%81%D0%B8%D1%81%D1%82%D0%B5%D0%BC%D1%83%22%20style%3D%22ellipse%3BwhiteSpace%3Dwrap%3Bhtml%3D1%3B%22%20vertex%3D%221%22%20parent%3D%221%22%3E%3CmxGeometry%20x%3D%2270%22%20y%3D%22-360%22%20width%3D%22140%22%20height%3D%2270%22%20as%3D%22geometry%22%2F%3E%3C%2FmxCell%3E%3C%2Froot%3E%3C%2FmxGraphModel%3E&lt;/span&gt;&lt;span style=&quot;color: rgba(0, 0, 0, 0); font-family: monospace; font-size: 0px; text-align: start; text-wrap: nowrap;&quot;&gt;%3CmxGraphModel%3E%3Croot%3E%3CmxCell%20id%3D%220%22%2F%3E%3CmxCell%20id%3D%221%22%20parent%3D%220%22%2F%3E%3CmxCell%20id%3D%222%22%20value%3D%22%D0%92%D1%85%D0%BE%D0%B4%20%D0%B2%20%D1%81%D0%B8%D1%81%D1%82%D0%B5%D0%BC%D1%83%22%20style%3D%22ellipse%3BwhiteSpace%3Dwrap%3Bhtml%3D1%3B%22%20vertex%3D%221%22%20parent%3D%221%22%3E%3CmxGeometry%20x%3D%2270%22%20y%3D%22-360%22%20width%3D%22140%22%20height%3D%2270%22%20as%3D%22geometry%22%2F%3E%3C%2FmxCell%3E%3C%2Froot%3E%3C%2FmxGraphModel%3E&lt;/span&gt;&lt;span style=&quot;color: rgba(0, 0, 0, 0); font-family: monospace; font-size: 0px; text-align: start; text-wrap: nowrap;&quot;&gt;%3CmxGraphModel%3E%3Croot%3E%3CmxCell%20id%3D%220%22%2F%3E%3CmxCell%20id%3D%221%22%20parent%3D%220%22%2F%3E%3CmxCell%20id%3D%222%22%20value%3D%22%D0%92%D1%85%D0%BE%D0%B4%20%D0%B2%20%D1%81%D0%B8%D1%81%D1%82%D0%B5%D0%BC%D1%83%22%20style%3D%22ellipse%3BwhiteSpace%3Dwrap%3Bhtml%3D1%3B%22%20vertex%3D%221%22%20parent%3D%221%22%3E%3CmxGeometry%20x%3D%2270%22%20y%3D%22-360%22%20width%3D%22140%22%20height%3D%2270%22%20as%3D%22geometry%22%2F%3E%3C%2FmxCell%3E%3C%2Froot%3E%3C%2FmxGraphModel%3E&lt;/span&gt;" style="ellipse;whiteSpace=wrap;html=1;" vertex="1" parent="1">
          <mxGeometry x="330" y="-320" width="140" height="70" as="geometry" />
        </mxCell>
        <mxCell id="qHtUTdkbh8R9QmoetXJE-15" value="регистрация" style="ellipse;whiteSpace=wrap;html=1;" vertex="1" parent="1">
          <mxGeometry x="440" y="-400" width="140" height="70" as="geometry" />
        </mxCell>
        <mxCell id="qHtUTdkbh8R9QmoetXJE-16" value="аккаунт не был зарегистрирован" style="shape=note;whiteSpace=wrap;html=1;backgroundOutline=1;darkOpacity=0.05;" vertex="1" parent="1">
          <mxGeometry x="270" y="-430" width="80" height="100" as="geometry" />
        </mxCell>
        <mxCell id="qHtUTdkbh8R9QmoetXJE-19" value="" style="endArrow=none;html=1;rounded=0;exitX=0.5;exitY=0.5;exitDx=0;exitDy=0;exitPerimeter=0;entryX=0;entryY=1;entryDx=0;entryDy=0;" edge="1" parent="1" source="qHtUTdkbh8R9QmoetXJE-10" target="qHtUTdkbh8R9QmoetXJE-13">
          <mxGeometry width="50" height="50" relative="1" as="geometry">
            <mxPoint x="540" y="-120" as="sourcePoint" />
            <mxPoint x="590" y="-170" as="targetPoint" />
          </mxGeometry>
        </mxCell>
        <mxCell id="qHtUTdkbh8R9QmoetXJE-20" value="" style="endArrow=classic;dashed=1;html=1;rounded=0;exitX=0.5;exitY=0;exitDx=0;exitDy=0;entryX=0.5;entryY=1;entryDx=0;entryDy=0;endFill=1;" edge="1" parent="1" source="qHtUTdkbh8R9QmoetXJE-13" target="qHtUTdkbh8R9QmoetXJE-14">
          <mxGeometry width="50" height="50" relative="1" as="geometry">
            <mxPoint x="520" y="-110" as="sourcePoint" />
            <mxPoint x="570" y="-160" as="targetPoint" />
          </mxGeometry>
        </mxCell>
        <mxCell id="qHtUTdkbh8R9QmoetXJE-21" value="" style="endArrow=classic;dashed=1;html=1;rounded=0;exitX=0.5;exitY=1;exitDx=0;exitDy=0;entryX=1;entryY=0;entryDx=0;entryDy=0;endFill=1;" edge="1" parent="1" source="qHtUTdkbh8R9QmoetXJE-15" target="qHtUTdkbh8R9QmoetXJE-14">
          <mxGeometry width="50" height="50" relative="1" as="geometry">
            <mxPoint x="440" y="-210" as="sourcePoint" />
            <mxPoint x="410" y="-240" as="targetPoint" />
          </mxGeometry>
        </mxCell>
        <mxCell id="qHtUTdkbh8R9QmoetXJE-22" value="" style="endArrow=none;dashed=1;html=1;rounded=0;exitX=0;exitY=0;exitDx=80;exitDy=65;exitPerimeter=0;entryX=0;entryY=0.5;entryDx=0;entryDy=0;" edge="1" parent="1" source="qHtUTdkbh8R9QmoetXJE-16" target="qHtUTdkbh8R9QmoetXJE-15">
          <mxGeometry width="50" height="50" relative="1" as="geometry">
            <mxPoint x="730" y="-260" as="sourcePoint" />
            <mxPoint x="780" y="-310" as="targetPoint" />
          </mxGeometry>
        </mxCell>
        <mxCell id="qHtUTdkbh8R9QmoetXJE-27" value="&amp;lt;&amp;lt;include&amp;gt;&amp;gt;" style="text;html=1;align=center;verticalAlign=middle;resizable=0;points=[];autosize=1;strokeColor=none;fillColor=none;" vertex="1" parent="1">
          <mxGeometry x="420" y="-250" width="90" height="30" as="geometry" />
        </mxCell>
        <mxCell id="qHtUTdkbh8R9QmoetXJE-28" value="&amp;lt;&amp;lt;extend&amp;gt;&amp;gt;" style="text;html=1;align=center;verticalAlign=middle;resizable=0;points=[];autosize=1;strokeColor=none;fillColor=none;" vertex="1" parent="1">
          <mxGeometry x="470" y="-320" width="90" height="30" as="geometry" />
        </mxCell>
        <mxCell id="qHtUTdkbh8R9QmoetXJE-29" value="" style="endArrow=none;html=1;rounded=0;entryX=0.5;entryY=0.5;entryDx=0;entryDy=0;entryPerimeter=0;exitX=1;exitY=1;exitDx=0;exitDy=0;" edge="1" parent="1" source="qHtUTdkbh8R9QmoetXJE-5" target="qHtUTdkbh8R9QmoetXJE-10">
          <mxGeometry width="50" height="50" relative="1" as="geometry">
            <mxPoint x="480" as="sourcePoint" />
            <mxPoint x="530" y="-50" as="targetPoint" />
          </mxGeometry>
        </mxCell>
        <mxCell id="qHtUTdkbh8R9QmoetXJE-30" value="" style="endArrow=none;html=1;rounded=0;exitX=0.5;exitY=0.5;exitDx=0;exitDy=0;exitPerimeter=0;entryX=1;entryY=0.5;entryDx=0;entryDy=0;" edge="1" parent="1" source="qHtUTdkbh8R9QmoetXJE-10" target="qHtUTdkbh8R9QmoetXJE-3">
          <mxGeometry width="50" height="50" relative="1" as="geometry">
            <mxPoint x="260" y="-160" as="sourcePoint" />
            <mxPoint x="240" as="targetPoint" />
          </mxGeometry>
        </mxCell>
        <mxCell id="qHtUTdkbh8R9QmoetXJE-31" value="" style="endArrow=none;html=1;rounded=0;exitX=0.5;exitY=0.5;exitDx=0;exitDy=0;exitPerimeter=0;entryX=0;entryY=0;entryDx=0;entryDy=0;" edge="1" parent="1" source="qHtUTdkbh8R9QmoetXJE-10" target="qHtUTdkbh8R9QmoetXJE-4">
          <mxGeometry width="50" height="50" relative="1" as="geometry">
            <mxPoint x="480" as="sourcePoint" />
            <mxPoint x="530" y="-50" as="targetPoint" />
          </mxGeometry>
        </mxCell>
        <mxCell id="qHtUTdkbh8R9QmoetXJE-32" value="" style="endArrow=none;html=1;rounded=0;exitX=0.5;exitY=0.5;exitDx=0;exitDy=0;exitPerimeter=0;entryX=0.5;entryY=0;entryDx=0;entryDy=0;" edge="1" parent="1" source="qHtUTdkbh8R9QmoetXJE-10" target="qHtUTdkbh8R9QmoetXJE-1">
          <mxGeometry width="50" height="50" relative="1" as="geometry">
            <mxPoint x="480" as="sourcePoint" />
            <mxPoint x="530" y="-50" as="targetPoint" />
          </mxGeometry>
        </mxCell>
        <mxCell id="qHtUTdkbh8R9QmoetXJE-33" value="" style="endArrow=block;html=1;rounded=0;endFill=0;exitX=0.5;exitY=0.5;exitDx=0;exitDy=0;exitPerimeter=0;entryX=0.5;entryY=0.5;entryDx=0;entryDy=0;entryPerimeter=0;" edge="1" parent="1" source="qHtUTdkbh8R9QmoetXJE-11" target="qHtUTdkbh8R9QmoetXJE-10">
          <mxGeometry width="50" height="50" relative="1" as="geometry">
            <mxPoint x="170" y="50" as="sourcePoint" />
            <mxPoint x="290" y="-30" as="targetPoint" />
          </mxGeometry>
        </mxCell>
        <mxCell id="qHtUTdkbh8R9QmoetXJE-34" value="" style="endArrow=none;html=1;rounded=0;exitX=0.5;exitY=0.5;exitDx=0;exitDy=0;exitPerimeter=0;entryX=0.5;entryY=0;entryDx=0;entryDy=0;" edge="1" parent="1" source="qHtUTdkbh8R9QmoetXJE-11" target="qHtUTdkbh8R9QmoetXJE-6">
          <mxGeometry width="50" height="50" relative="1" as="geometry">
            <mxPoint x="460" y="210" as="sourcePoint" />
            <mxPoint x="510" y="160" as="targetPoint" />
          </mxGeometry>
        </mxCell>
        <mxCell id="qHtUTdkbh8R9QmoetXJE-35" value="" style="endArrow=none;html=1;rounded=0;exitX=0.5;exitY=0.5;exitDx=0;exitDy=0;exitPerimeter=0;entryX=0.5;entryY=0;entryDx=0;entryDy=0;" edge="1" parent="1" source="qHtUTdkbh8R9QmoetXJE-11" target="qHtUTdkbh8R9QmoetXJE-7">
          <mxGeometry width="50" height="50" relative="1" as="geometry">
            <mxPoint x="460" y="210" as="sourcePoint" />
            <mxPoint x="510" y="160" as="targetPoint" />
          </mxGeometry>
        </mxCell>
        <mxCell id="qHtUTdkbh8R9QmoetXJE-36" value="" style="endArrow=none;html=1;rounded=0;exitX=0.5;exitY=0.5;exitDx=0;exitDy=0;exitPerimeter=0;entryX=0;entryY=0;entryDx=0;entryDy=0;" edge="1" parent="1" source="qHtUTdkbh8R9QmoetXJE-11" target="qHtUTdkbh8R9QmoetXJE-9">
          <mxGeometry width="50" height="50" relative="1" as="geometry">
            <mxPoint x="460" y="210" as="sourcePoint" />
            <mxPoint x="510" y="160" as="targetPoint" />
          </mxGeometry>
        </mxCell>
        <mxCell id="qHtUTdkbh8R9QmoetXJE-37" value="" style="endArrow=none;html=1;rounded=0;exitX=0.5;exitY=0.5;exitDx=0;exitDy=0;exitPerimeter=0;entryX=0.5;entryY=0;entryDx=0;entryDy=0;" edge="1" parent="1" source="qHtUTdkbh8R9QmoetXJE-11" target="qHtUTdkbh8R9QmoetXJE-8">
          <mxGeometry width="50" height="50" relative="1" as="geometry">
            <mxPoint x="460" y="210" as="sourcePoint" />
            <mxPoint x="510" y="160" as="targetPoint" />
          </mxGeometry>
        </mxCell>
        <mxCell id="qHtUTdkbh8R9QmoetXJE-38" value="Ввод данных мероприятия" style="ellipse;whiteSpace=wrap;html=1;" vertex="1" parent="1">
          <mxGeometry y="290" width="140" height="70" as="geometry" />
        </mxCell>
        <mxCell id="qHtUTdkbh8R9QmoetXJE-39" value="&amp;lt;&amp;lt;include&amp;gt;&amp;gt;" style="text;html=1;align=center;verticalAlign=middle;resizable=0;points=[];autosize=1;strokeColor=none;fillColor=none;" vertex="1" parent="1">
          <mxGeometry x="60" y="260" width="90" height="30" as="geometry" />
        </mxCell>
        <mxCell id="qHtUTdkbh8R9QmoetXJE-40" value="" style="endArrow=classic;dashed=1;html=1;rounded=0;exitX=0.5;exitY=1;exitDx=0;exitDy=0;entryX=0.5;entryY=0;entryDx=0;entryDy=0;endFill=1;" edge="1" parent="1" source="qHtUTdkbh8R9QmoetXJE-6" target="qHtUTdkbh8R9QmoetXJE-38">
          <mxGeometry width="50" height="50" relative="1" as="geometry">
            <mxPoint x="460" y="490" as="sourcePoint" />
            <mxPoint x="510" y="440" as="targetPoint" />
          </mxGeometry>
        </mxCell>
        <mxCell id="qHtUTdkbh8R9QmoetXJE-41" value="Объединение мероприятий" style="ellipse;whiteSpace=wrap;html=1;" vertex="1" parent="1">
          <mxGeometry x="395" y="310" width="140" height="70" as="geometry" />
        </mxCell>
        <mxCell id="qHtUTdkbh8R9QmoetXJE-42" value="" style="endArrow=classic;dashed=1;html=1;rounded=0;exitX=1;exitY=1;exitDx=0;exitDy=0;entryX=0.5;entryY=0;entryDx=0;entryDy=0;endFill=1;" edge="1" parent="1" source="qHtUTdkbh8R9QmoetXJE-8" target="qHtUTdkbh8R9QmoetXJE-41">
          <mxGeometry width="50" height="50" relative="1" as="geometry">
            <mxPoint x="80" y="230" as="sourcePoint" />
            <mxPoint x="80" y="300" as="targetPoint" />
          </mxGeometry>
        </mxCell>
        <mxCell id="qHtUTdkbh8R9QmoetXJE-43" value="&amp;lt;&amp;lt;include&amp;gt;&amp;gt;" style="text;html=1;align=center;verticalAlign=middle;resizable=0;points=[];autosize=1;strokeColor=none;fillColor=none;" vertex="1" parent="1">
          <mxGeometry x="430" y="270" width="90" height="30" as="geometry" />
        </mxCell>
      </root>
    </mxGraphModel>
  </diagram>
</mxfile>
